<svg xmlns="http://www.w3.org/2000/svg">



	<symbol id="heart">
		<path
			d="M9.188 21C8.94533 20.384 8.69333 19.8147 8.432 19.292C8.18933 18.7507 7.88133 18.172 7.508 17.556C7.13467 16.94 6.668 16.2213 6.108 15.4C5.548 14.5787 4.83867 13.58 3.98 12.404C2.87867 10.892 2.09467 9.59467 1.628 8.512C1.16133 7.42933 0.928 6.37467 0.928 5.348C0.928 4.52667 1.13333 3.78 1.544 3.108C1.97333 2.41733 2.53333 1.876 3.224 1.484C3.93333 1.07333 4.69867 0.867999 5.52 0.867999C6.39733 0.867999 7.20933 1.092 7.956 1.54C8.72133 1.988 9.34667 2.66933 9.832 3.584C10.336 2.66933 10.9707 1.988 11.736 1.54C12.5013 1.092 13.3227 0.867999 14.2 0.867999C15.0027 0.867999 15.7493 1.07333 16.44 1.484C17.1493 1.876 17.7187 2.41733 18.148 3.108C18.5773 3.78 18.792 4.52667 18.792 5.348C18.792 6.00133 18.6987 6.67333 18.512 7.364C18.344 8.036 18.036 8.78267 17.588 9.604C17.14 10.4067 16.524 11.3493 15.74 12.432C14.8813 13.6267 14.1627 14.644 13.584 15.484C13.0053 16.3053 12.5293 17.024 12.156 17.64C11.8013 18.256 11.4933 18.8253 11.232 19.348C10.9707 19.8707 10.728 20.4213 10.504 21H9.188ZM9.832 18.564C10.1867 17.8547 10.6627 17.0333 11.26 16.1C11.876 15.1667 12.5947 14.1307 13.416 12.992C14.2373 11.8533 14.9093 10.8733 15.432 10.052C15.9547 9.23067 16.328 8.57733 16.552 8.092C17 7.10267 17.224 6.188 17.224 5.348C17.224 4.80667 17.084 4.32133 16.804 3.892C16.524 3.444 16.1507 3.08933 15.684 2.828C15.236 2.56667 14.7413 2.436 14.2 2.436C13.3973 2.436 12.6693 2.772 12.016 3.444C11.3627 4.09733 10.8773 5.00267 10.56 6.16H9.132C8.77733 4.89067 8.27333 3.95733 7.62 3.36C6.98533 2.744 6.28533 2.436 5.52 2.436C4.99733 2.436 4.50267 2.56667 4.036 2.828C3.56933 3.08933 3.196 3.444 2.916 3.892C2.636 4.32133 2.496 4.80667 2.496 5.348C2.496 6.132 2.71067 7.028 3.14 8.036C3.55067 8.988 4.57733 10.584 6.22 12.824C7.04133 13.9067 7.75067 14.9333 8.348 15.904C8.94533 16.856 9.44 17.7427 9.832 18.564Z"
			fill="currentColor" />
	</symbol>
	<symbol id="schedule_icon_01">
		<path
			d="M59.2373 15.5776C60.1637 13.8894 60.5953 11.9742 60.4824 10.0518C60.3695 8.12948 59.7166 6.27795 58.5989 4.70987C57.4812 3.1418 55.9438 1.92077 54.1634 1.18701C52.383 0.45325 50.4318 0.236517 48.5337 0.561699C46.6357 0.886881 44.8679 1.74079 43.4333 3.02537C41.9987 4.30994 40.9555 5.97309 40.4235 7.82382C40.3196 8.18515 40.5283 8.56228 40.8897 8.66615C41.251 8.77002 41.6281 8.5613 41.732 8.19997C42.1933 6.59537 43.0977 5.15341 44.3415 4.03968C45.5853 2.92594 47.1181 2.18559 48.7637 1.90366C50.4092 1.62172 52.101 1.80963 53.6446 2.44581C55.1882 3.08198 56.5211 4.14062 57.4902 5.50016C58.4593 6.85969 59.0253 8.46498 59.1232 10.1317C59.2211 11.7984 58.847 13.4589 58.0437 14.9225C57.2404 16.3862 56.0407 17.5936 54.5821 18.4061C53.1236 19.2186 51.4655 19.6033 49.7982 19.516C49.4228 19.4963 49.1024 19.7848 49.0828 20.1602C49.0631 20.5357 49.3515 20.856 49.727 20.8756C51.65 20.9764 53.5625 20.5327 55.2447 19.5955C56.927 18.6584 58.3108 17.2657 59.2373 15.5776Z"
			fill="currentColor" />
		<path fill-rule="evenodd" clip-rule="evenodd"
			d="M0.5 2.54247C0.5 2.1665 0.804784 1.86171 1.18076 1.86171H10.3242L19.8548 11.962H49.9514C51.1804 11.962 51.7803 13.4616 50.8905 14.3093L30.7116 33.5323C30.6317 33.6084 30.5449 33.673 30.4532 33.7259V58.2534H40.6646C41.0405 58.2534 41.3453 58.5582 41.3453 58.9341C41.3453 59.3101 41.0405 59.6149 40.6646 59.6149H18.8804C18.5044 59.6149 18.1996 59.3101 18.1996 58.9341C18.1996 58.5582 18.5044 58.2534 18.8804 58.2534H29.0917V33.7259C29.0001 33.673 28.9133 33.6084 28.8334 33.5323L8.65446 14.3093C7.76463 13.4616 8.3646 11.962 9.59356 11.962H17.9828L9.73695 3.22322H1.18076C0.804784 3.22322 0.5 2.91844 0.5 2.54247ZM49.9514 13.3235L29.7725 32.5465L9.59356 13.3235H49.9514Z"
			fill="currentColor" />
	</symbol>
	<symbol id="schedule_icon_02">
		<path fill-rule="evenodd" clip-rule="evenodd"
			d="M10.7668 8.27288C16.0004 3.03931 23.0986 0.0991211 30.5 0.0991211C37.9014 0.0991211 44.9996 3.03931 50.2332 8.27289C55.4668 13.5065 58.407 20.6047 58.407 28.0061V39.1551C58.4071 39.1637 58.4071 39.1724 58.407 39.1811V58.7038H59.8023C60.1876 58.7038 60.5 59.0161 60.5 59.4014C60.5 59.7868 60.1876 60.0991 59.8023 60.0991H1.19767C0.812359 60.0991 0.5 59.7868 0.5 59.4014C0.5 59.0161 0.812359 58.7038 1.19767 58.7038H2.59302V39.1843C2.59279 39.1738 2.59278 39.1633 2.59302 39.1528V28.0061C2.59302 20.6047 5.53322 13.5065 10.7668 8.27288ZM41.6628 58.7038H18.6285C18.3608 50.2782 13.2617 42.7329 5.49986 39.357C13.6284 36.9336 19.3372 29.4268 19.3372 20.7777V3.95908C22.5947 2.44699 26.1528 1.59961 29.8023 1.50364V13.3262C29.712 13.2428 29.6203 13.1634 29.5273 13.0878C26.7352 10.819 22.8256 12.0864 22.8256 15.8643C22.8256 18.9092 23.3899 19.4106 26.1382 21.8521C27.2204 22.8136 28.6415 24.0761 30.5 25.9131C32.1221 24.3229 33.4269 23.1683 34.4676 22.2472C37.2957 19.7445 38.1744 18.9669 38.1744 15.8647C38.1744 12.0534 34.6377 10.7969 31.5344 13.1486C31.4215 13.2341 31.3092 13.3244 31.1977 13.4196V1.50364C34.8472 1.59961 38.4053 2.44698 41.6628 3.95908V20.7777C41.6628 28.9638 46.7768 36.1266 54.216 38.9247C46.5747 42.518 41.6628 50.2143 41.6628 58.7038ZM43.0581 58.7038H57.0116V39.7423C56.7519 39.6871 56.4943 39.6267 56.2389 39.5614L55.4606 39.895C47.9365 43.1196 43.0581 50.5179 43.0581 58.7038ZM57.0116 37.7734V28.0061C57.0116 20.9748 54.2184 14.2314 49.2465 9.25955C47.4023 7.41525 45.3142 5.87075 43.0581 4.6574V20.7777C43.0581 28.8873 48.4662 35.9148 56.1343 38.0882L56.7368 37.8299C56.8265 37.7915 56.9198 37.7733 57.0116 37.7734ZM4.84175 40.5927L3.98837 40.2269V58.7038H17.2324C16.9641 50.7974 12.1514 43.7254 4.84175 40.5927ZM11.7534 9.25954C13.5977 7.41525 15.6858 5.87075 17.9419 4.6574V20.7777C17.9419 29.1933 12.118 36.4436 3.98837 38.3132V28.0061C3.98837 20.9748 6.78155 14.2314 11.7534 9.25954ZM30.505 23.9691C31.6016 22.9271 32.5342 22.0956 33.3178 21.4015L33.5195 21.223C34.4391 20.409 35.089 19.8336 35.5804 19.3095C36.0823 18.7739 36.3493 18.3617 36.5128 17.9146C36.6823 17.451 36.7791 16.8447 36.7791 15.8647C36.7791 14.2793 36.026 13.5978 35.2497 13.4143C34.3637 13.2049 32.9298 13.5227 31.523 15.0395L30.4031 16.247L29.396 14.9439C28.3196 13.5513 26.9316 13.1937 25.9426 13.4172C25.0202 13.6257 24.2209 14.3763 24.2209 15.8643C24.2209 16.8887 24.291 17.4614 24.4268 17.8795C24.5494 18.257 24.7549 18.598 25.2138 19.0873C25.6437 19.5457 26.2211 20.0589 27.0656 20.8095L27.4537 21.1546C28.2795 21.89 29.2862 22.7969 30.505 23.9691Z"
			fill="currentColor" />
	</symbol>
	<symbol id="schedule_icon_03">
		<path fill-rule="evenodd" clip-rule="evenodd"
			d="M20.5 6.40396C20.5 1.39664 26.3333 -1.15176 30.5 2.62623C35.5 -1.15176 40.5 1.39664 40.5 6.40396C40.5 11.1098 35.3481 14.9779 31.2692 17.3081V20.8138H35.8846C39.2833 20.8138 42.0385 23.569 42.0385 26.9676V30.0446C45.4371 30.0446 48.1923 32.7997 48.1923 36.1984V43.8907V45.4292H46.6539H31.2692V50.0446H54.3462C57.7448 50.0446 60.5 52.7997 60.5 56.1984V71.583V73.1215H58.9615H49.7308H40.5H29.7308H12.0385H2.03846H0.5V71.583V56.1984C0.5 52.7997 3.25517 50.0446 6.65385 50.0446H29.7308V45.4292H14.3462H12.8077V43.8907V36.1984C12.8077 32.7997 15.5629 30.0446 18.9615 30.0446V26.9676C18.9615 23.569 21.7167 20.8138 25.1154 20.8138H29.7308V17.3738C24.9999 15.0511 20.5 11.1543 20.5 6.40396ZM35.9901 11.995C34.3558 13.5838 32.3036 14.9498 30.4417 16.0089C28.3094 14.9658 26.2663 13.6041 24.7268 12.0244C23.0181 10.2711 22.0385 8.3687 22.0385 6.40396C22.0385 4.55461 23.09 3.21595 24.5083 2.64925C25.9222 2.08432 27.8033 2.25781 29.4666 3.76595L30.4107 4.62198L31.4275 3.8537C33.6018 2.21077 35.5257 2.11038 36.7772 2.63815C38.0116 3.15877 38.9615 4.43868 38.9615 6.40396C38.9615 8.2956 37.8502 10.1869 35.9901 11.995ZM25.1154 22.3522C22.5664 22.3522 20.5 24.4186 20.5 26.9676V30.0446H40.5V26.9676C40.5 24.4186 38.4336 22.3522 35.8846 22.3522H25.1154ZM41.2692 71.583V60.8138C41.2692 60.389 40.9248 60.0446 40.5 60.0446C40.0752 60.0446 39.7308 60.389 39.7308 60.8138V71.583H30.5V63.8907C30.5 63.4659 30.1556 63.1215 29.7308 63.1215C29.3059 63.1215 28.9615 63.4659 28.9615 63.8907V71.583H22.0385V60.0446C22.0385 59.6197 21.6941 59.2753 21.2692 59.2753C20.8444 59.2753 20.5 59.6197 20.5 60.0446V71.583H12.8077V63.8907C12.8077 63.4659 12.4633 63.1215 12.0385 63.1215C11.6136 63.1215 11.2692 63.4659 11.2692 63.8907V71.583H2.03846V56.1984C2.03846 53.6494 4.10484 51.583 6.65385 51.583L30.5 51.583L54.3462 51.583C56.8952 51.583 58.9615 53.6494 58.9615 56.1984V71.583H50.5V63.8907C50.5 63.4659 50.1556 63.1215 49.7308 63.1215C49.3059 63.1215 48.9615 63.4659 48.9615 63.8907V71.583H41.2692ZM30.5 43.8907L46.6539 43.8907V36.1984C46.6539 33.6494 44.5875 31.583 42.0385 31.583H40.5H20.5H18.9615C16.4125 31.583 14.3462 33.6494 14.3462 36.1984V43.8907L30.5 43.8907Z"
			fill="currentColor" />
	</symbol>
	<symbol id="schedule_icon_04">
		<path fill-rule="evenodd" clip-rule="evenodd"
			d="M11.9895 20.3216V25.7049H0.5V53.79C0.5 55.2001 1.6431 56.3432 3.05319 56.3432H52.8404C54.2505 56.3432 55.3936 55.2001 55.3936 53.79V25.7049H46.9873L46.1682 21.3362C45.5036 17.7917 43.7982 14.5268 41.2712 11.9572L40.6801 10.1839C40.6644 10.1366 40.6436 10.0924 40.6186 10.0516C42.5397 9.31821 43.9043 7.45814 43.9043 5.27936C43.9043 2.45918 41.618 0.172974 38.7979 0.172974C35.9777 0.172974 33.6915 2.45918 33.6915 5.27936C33.6915 7.39239 34.9749 9.20566 36.8048 9.98214L36.3138 11.9462C33.8122 14.093 32.1155 17.0303 31.5072 20.2744L30.511 25.5873C30.5036 25.6268 30.5 25.6661 30.5 25.7049H24.1172V20.3216L25.7206 19.3595C26.7281 18.755 26.9587 17.3942 26.2065 16.4916L26.0207 16.2686C24.6113 14.5774 22.8673 13.1961 20.8982 12.2115L20.2874 11.9061V10.0145C22.1587 9.25695 23.4787 7.42231 23.4787 5.27936C23.4787 2.45918 21.1925 0.172974 18.3723 0.172974C15.5522 0.172974 13.266 2.45918 13.266 5.27936C13.266 7.17011 14.2936 8.82086 15.8208 9.70354C15.8198 9.71805 15.8193 9.73269 15.8193 9.74744V11.9061L15.2085 12.2115C13.2394 13.1961 11.4954 14.5774 10.086 16.2686L9.90018 16.4916C9.14802 17.3942 9.37857 18.755 10.386 19.3595L11.9895 20.3216ZM22.2021 5.27936C22.2021 7.39449 20.4875 9.10914 18.3723 9.10914C16.2572 9.10914 14.5426 7.39449 14.5426 5.27936C14.5426 3.16422 16.2572 1.44957 18.3723 1.44957C20.4875 1.44957 22.2021 3.16422 22.2021 5.27936ZM19.0108 10.3462C18.8016 10.3723 18.5886 10.3857 18.3723 10.3857C17.9316 10.3857 17.5039 10.3299 17.0959 10.2249V12.6951L15.7794 13.3534C13.9679 14.2591 12.3633 15.5299 11.0667 17.0859L10.8809 17.3089C10.6302 17.6097 10.707 18.0634 11.0428 18.2648L13.2661 19.5988V25.7049H22.8406V19.5988L25.0638 18.2648C25.3997 18.0634 25.4765 17.6097 25.2258 17.3089L25.0399 17.0859C23.7433 15.5299 22.1388 14.2591 20.3273 13.3534L19.0108 12.6951V10.3462ZM46.4689 26.9815C46.4608 26.9816 46.4528 26.9816 46.4448 26.9815H1.7766V33.7982L3.96136 36.8569C4.47012 37.5691 5.17251 38.1205 5.9852 38.4456C6.98995 38.8475 8.10463 38.8802 9.13125 38.538L9.47516 38.4234C10.4569 38.0961 11.328 37.5016 11.9905 36.7066L14.5815 33.5974L17.3656 37.4952C17.8744 38.2074 18.5768 38.7588 19.3895 39.0839C20.3942 39.4858 21.5089 39.5185 22.5355 39.1763L22.7525 39.104C23.795 38.7565 24.7007 38.0876 25.3394 37.1934L27.9011 33.607L31.3634 37.6463C31.8862 38.2562 32.5488 38.7306 33.2947 39.0289L33.3705 39.0593C34.415 39.4771 35.5737 39.5111 36.6409 39.1554C37.751 38.7854 38.6857 38.0191 39.2663 37.0031L41.2913 33.4592L44.1741 37.4952C44.6829 38.2074 45.3853 38.7588 46.198 39.0839C47.2027 39.4858 48.3174 39.5185 49.344 39.1763L49.4068 39.1554C50.5169 38.7854 51.4516 38.0191 52.0322 37.0031L53.5629 34.3244C53.6806 34.1184 53.8957 34.0029 54.117 34.0027V26.9815H46.4689ZM44.9134 21.5714L45.6885 25.7049H31.7878L32.7619 20.5096C33.3284 17.4883 34.9302 14.7589 37.2917 12.791L36.8831 12.3006L37.5023 12.4554L38.0339 10.329C38.2832 10.3664 38.5382 10.3857 38.7979 10.3857C39.0144 10.3857 39.2279 10.3723 39.4373 10.3461C39.4324 10.4256 39.4423 10.5074 39.469 10.5876L40.1073 12.5025L40.7129 12.3006L40.2615 12.752C42.6654 15.1559 44.2869 18.23 44.9134 21.5714ZM38.7979 9.10914C40.913 9.10914 42.6277 7.39449 42.6277 5.27936C42.6277 3.16422 40.913 1.44957 38.7979 1.44957C36.6827 1.44957 34.9681 3.16422 34.9681 5.27936C34.9681 7.39449 36.6827 9.10914 38.7979 9.10914ZM1.7766 35.9945L2.92255 37.5989C3.57326 38.5099 4.47164 39.2151 5.51109 39.6309C6.79618 40.1449 8.22188 40.1868 9.53494 39.7491L9.87885 39.6345C11.0858 39.2321 12.1567 38.5012 12.9712 37.5239L14.5037 35.6848L16.3268 38.2372C16.9775 39.1482 17.8759 39.8534 18.9153 40.2692C20.2004 40.7832 21.6261 40.8251 22.9392 40.3874L23.1562 40.3151C24.4547 39.8822 25.5827 39.0492 26.3782 37.9354L27.9926 35.6753L30.3942 38.4771C31.051 39.2434 31.8835 39.8394 32.8205 40.2142L32.8964 40.2446C34.2212 40.7745 35.6909 40.8177 37.0446 40.3665C38.4526 39.8971 39.6383 38.9251 40.3746 37.6364L41.4109 35.823L43.1353 38.2372C43.786 39.1482 44.6844 39.8534 45.7239 40.2692C47.0089 40.7832 48.4346 40.8251 49.7477 40.3874L49.8105 40.3665C51.2186 39.8971 52.4042 38.9251 53.1406 37.6365L54.117 35.9277V53.79C54.117 54.495 53.5455 55.0666 52.8404 55.0666H3.05319C2.34815 55.0666 1.7766 54.495 1.7766 53.79V35.9945Z"
			fill="currentColor" />
		<path
			d="M1.7766 58.8964C1.42407 58.8964 1.1383 59.1822 1.1383 59.5347C1.1383 59.8872 1.42407 60.173 1.7766 60.173H54.7553C55.1078 60.173 55.3936 59.8872 55.3936 59.5347C55.3936 59.1822 55.1078 58.8964 54.7553 58.8964H1.7766Z"
			fill="currentColor" />
	</symbol>
	<symbol id="schedule_icon_05">
		<path fill-rule="evenodd" clip-rule="evenodd"
			d="M29.252 1.11286C29.6448 -0.0961331 31.3552 -0.0961334 31.748 1.11286L33.5935 6.79266C33.7692 7.33334 34.273 7.69941 34.8415 7.69941H40.8136C42.0849 7.69941 42.6134 9.3261 41.585 10.0733L36.7534 13.5836C36.2935 13.9178 36.1011 14.5101 36.2767 15.0508L38.1222 20.7306C38.515 21.9396 37.1313 22.9449 36.1029 22.1977L31.2713 18.6874C30.8114 18.3532 30.1886 18.3532 29.7287 18.6874L24.8972 22.1977C23.8687 22.9449 22.485 21.9396 22.8778 20.7306L24.7233 15.0508C24.8989 14.5101 24.7065 13.9178 24.2466 13.5836L19.415 10.0733C18.3866 9.32611 18.9152 7.69941 20.1864 7.69941H26.1585C26.727 7.69941 27.2308 7.33334 27.4065 6.79266L29.252 1.11286ZM30.5 1.51837L32.3455 7.19817C32.6968 8.27953 33.7045 9.01167 34.8415 9.01167H40.8136L35.9821 12.522C35.0623 13.1903 34.6773 14.3749 35.0287 15.4563L36.8742 21.1361L32.0426 17.6258C31.1228 16.9574 29.8772 16.9574 28.9573 17.6258L24.1258 21.1361L25.9713 15.4563C26.3227 14.3749 25.9378 13.1903 25.0179 12.522L20.1864 9.01167L26.1585 9.01167C27.2955 9.01167 28.3032 8.27953 28.6545 7.19817L30.5 1.51837Z"
			fill="currentColor" />
		<path fill-rule="evenodd" clip-rule="evenodd"
			d="M47.6236 18.1722C48.0164 16.9632 49.7268 16.9632 50.1196 18.1722L51.9651 23.852C52.1408 24.3927 52.6446 24.7587 53.2131 24.7587H59.1852C60.4564 24.7587 60.985 26.3854 59.9566 27.1326L55.125 30.643C54.6651 30.9771 54.4726 31.5694 54.6483 32.1101L56.4938 37.7899C56.8866 38.9989 55.5029 40.0042 54.4744 39.257L49.6429 35.7467C49.183 35.4126 48.5602 35.4126 48.1003 35.7467L43.2687 39.257C42.2403 40.0042 40.8566 38.9989 41.2494 37.7899L43.0949 32.1101C43.2705 31.5694 43.0781 30.9771 42.6182 30.643L37.7866 27.1326C36.7582 26.3854 37.2867 24.7587 38.558 24.7587H44.5301C45.0986 24.7587 45.6024 24.3927 45.7781 23.852L47.6236 18.1722ZM48.8716 18.5777L50.7171 24.2575C51.0684 25.3389 52.0761 26.071 53.2131 26.071H59.1852L54.3537 29.5813C53.4338 30.2496 53.0489 31.4343 53.4003 32.5156L55.2458 38.1954L50.4142 34.6851C49.4944 34.0168 48.2488 34.0168 47.3289 34.6851L42.4974 38.1954L44.3429 32.5156C44.6942 31.4343 44.3093 30.2496 43.3895 29.5813L38.558 26.071H44.5301C45.6671 26.071 46.6748 25.3389 47.0261 24.2575L48.8716 18.5777Z"
			fill="currentColor" />
		<path fill-rule="evenodd" clip-rule="evenodd"
			d="M13.3764 18.1722C12.9836 16.9632 11.2732 16.9632 10.8804 18.1722L9.0349 23.852C8.85922 24.3927 8.35537 24.7587 7.78687 24.7587H1.81477C0.543557 24.7587 0.0150139 26.3854 1.04345 27.1326L5.87498 30.643C6.3349 30.9771 6.52736 31.5694 6.35168 32.1101L4.5062 37.7899C4.11337 38.9989 5.49712 40.0042 6.52556 39.257L11.3571 35.7467C11.817 35.4126 12.4398 35.4126 12.8997 35.7467L17.7313 39.257C18.7597 40.0042 20.1434 38.9989 19.7506 37.7899L17.9051 32.1101C17.7295 31.5694 17.9219 30.9771 18.3818 30.643L23.2134 27.1326C24.2418 26.3854 23.7133 24.7587 22.442 24.7587H16.4699C15.9014 24.7587 15.3976 24.3927 15.2219 23.852L13.3764 18.1722ZM13.9739 24.2575L12.1284 18.5777L10.2829 24.2575C9.93157 25.3389 8.92388 26.071 7.78687 26.071H1.81477L6.6463 29.5813C7.56616 30.2496 7.95106 31.4343 7.59971 32.5156L5.75423 38.1954L10.5858 34.6851C11.5056 34.0168 12.7512 34.0168 13.6711 34.6851L18.5026 38.1954L16.6571 32.5156C16.3058 31.4343 16.6907 30.2496 17.6105 29.5813L22.442 26.071H16.4699C15.3329 26.071 14.3252 25.3389 13.9739 24.2575Z"
			fill="currentColor" />
		<path
			d="M31.1561 24.8292C31.1561 24.4668 30.8624 24.1731 30.5 24.1731C30.1376 24.1731 29.8439 24.4668 29.8439 24.8292V56.9795C29.8439 57.3419 30.1376 57.6356 30.5 57.6356C30.8624 57.6356 31.1561 57.3419 31.1561 56.9795V24.8292Z"
			fill="currentColor" />
		<path
			d="M13.6113 40.1349C13.8551 39.8668 14.27 39.847 14.5382 40.0908L14.8896 40.4103C19.4405 44.5475 22.4062 50.1421 23.276 56.2306C23.3272 56.5893 23.078 56.9217 22.7193 56.9729C22.3605 57.0241 22.0282 56.7749 21.9769 56.4162C21.1503 50.6299 18.3318 45.3131 14.0069 41.3813L13.6554 41.0618C13.3873 40.818 13.3675 40.4031 13.6113 40.1349Z"
			fill="currentColor" />
		<path
			d="M45.8057 40.0908C46.0738 39.847 46.4888 39.8668 46.7326 40.1349C46.9763 40.4031 46.9566 40.818 46.6884 41.0618L46.337 41.3813C42.012 45.3131 39.1936 50.6299 38.3669 56.4162C38.3157 56.7749 37.9833 57.0241 37.6246 56.9729C37.2659 56.9217 37.0166 56.5893 37.0679 56.2306C37.9377 50.1421 40.9034 44.5475 45.4543 40.4103L45.8057 40.0908Z"
			fill="currentColor" />
	</symbol>

	<symbol id="branch_left">
		<path fill-rule="evenodd" clip-rule="evenodd"
			d="M10.9044 11.6456C10.1749 12.962 8.32459 14.1466 5.62524 14.1466C2.58768 14.1466 1.12524 12.6466 0.125244 11.1466C1.12524 9.64659 2.58768 8.14659 5.62524 8.14659C8.32459 8.14659 10.1749 9.33114 10.9044 10.6476C10.915 10.6469 10.9256 10.6466 10.9364 10.6466L16.5536 10.6466C15.6888 10.1594 14.7889 9.43477 13.9302 8.43924C11.6876 5.83938 11.5325 4.30631 11.8694 2.52305C11.9999 2.51791 12.133 2.51147 12.2685 2.50492C14.0144 2.42043 16.1495 2.31712 18.2306 4.72983C20.1565 6.9626 20.7041 9.20063 20.3732 10.6466H28.6958C27.3947 10.1152 25.9723 9.11911 24.6345 7.5681C21.977 4.48717 21.7932 2.67042 22.1924 0.557175C22.347 0.551081 22.5047 0.543451 22.6651 0.535688C24.7341 0.435558 27.2646 0.313091 29.7308 3.17224C32.2301 6.06987 32.7706 8.975 32.13 10.6466H35.1249C35.401 10.6466 35.6249 10.8704 35.6249 11.1466C35.6249 11.4227 35.401 11.6466 35.1249 11.6466H32.1998C32.7252 13.3437 32.1322 16.1347 29.7308 18.9188C27.2646 21.7779 24.7343 21.6555 22.6653 21.5553C22.5048 21.5476 22.3471 21.5399 22.1924 21.5339C21.7932 19.4206 21.977 17.6039 24.6345 14.5229C25.8183 13.1505 27.0683 12.2125 28.2419 11.6466H20.3286C20.7462 13.083 20.2346 15.4119 18.2306 17.7352C16.1495 20.1479 14.0144 20.0446 12.2685 19.9601C12.133 19.9536 11.9999 19.9471 11.8694 19.942C11.5325 18.1587 11.6876 16.6257 13.9302 14.0258C14.8964 12.9057 15.9148 12.1285 16.8766 11.6466L10.9364 11.6466C10.9256 11.6466 10.915 11.6462 10.9044 11.6456ZM5.62524 9.14659C8.08589 9.14659 9.52843 10.2239 10.0363 11.1466C9.52843 12.0692 8.08589 13.1466 5.62524 13.1466C4.28321 13.1466 3.34973 12.8189 2.65397 12.3692C2.14014 12.0371 1.72267 11.6171 1.35555 11.1466C1.72267 10.6761 2.14014 10.256 2.65397 9.92394C3.34973 9.47425 4.28321 9.14659 5.62524 9.14659ZM17.7164 12.3616C16.7882 12.7447 15.7206 13.4811 14.6874 14.679C13.6162 15.9208 13.1126 16.8303 12.891 17.5752C12.749 18.0527 12.7114 18.5001 12.7458 18.98C13.3998 19.0056 14.0229 19.0054 14.6765 18.8632C15.5455 18.6742 16.4921 18.2197 17.4734 17.0821C18.5066 15.8842 19.0784 14.7201 19.3211 13.7457C19.5003 13.0265 19.4927 12.4493 19.3968 12.0357C18.9736 12.0016 18.4016 12.0788 17.7164 12.3616ZM14.6874 7.78609C15.7206 8.98393 16.7882 9.72038 17.7164 10.1035C18.4016 10.3863 18.9736 10.4635 19.3968 10.4293C19.4927 10.0157 19.5003 9.4386 19.3211 8.71934C19.0784 7.74493 18.5066 6.58082 17.4734 5.38298C16.4921 4.24537 15.5455 3.79087 14.6765 3.60185C14.0229 3.45967 13.3998 3.4594 12.7458 3.48508C12.7114 3.96496 12.749 4.41235 12.891 4.8898C13.1126 5.63472 13.6162 6.5442 14.6874 7.78609ZM29.0507 12.3797C27.9205 12.8462 26.6324 13.7377 25.3917 15.1761C24.113 16.6585 23.4985 17.7592 23.2257 18.6764C23.0333 19.323 22.997 19.9238 23.0604 20.5721C23.8989 20.6087 24.7083 20.6212 25.5583 20.4363C26.6278 20.2037 27.7848 19.6438 28.9735 18.2656C30.2142 16.8273 30.907 15.4223 31.2026 14.2358C31.4381 13.2903 31.4124 12.5294 31.2597 11.9941C30.7078 11.9216 29.9514 12.008 29.0507 12.3797ZM25.3917 6.91495C26.6324 8.35332 27.9205 9.24483 29.0507 9.71132C29.9514 10.083 30.7078 10.1694 31.2597 10.0969C31.4124 9.56163 31.4381 8.80069 31.2026 7.85523C30.907 6.66874 30.2142 5.26377 28.9735 3.82539C27.7848 2.44724 26.6278 1.88737 25.5583 1.65475C24.7083 1.46987 23.8989 1.48233 23.0604 1.51897C22.997 2.16726 23.0333 2.76805 23.2257 3.41464C23.4985 4.33186 24.113 5.43253 25.3917 6.91495Z"
			fill="currentColor" />

	</symbol>
	<symbol id="branch_right">
		<path fill-rule="evenodd" clip-rule="evenodd"
			d="M25.0958 10.4452C25.8252 9.12879 27.6755 7.94423 30.3749 7.94423C33.4124 7.94423 34.8749 9.44423 35.8749 10.9442C34.8749 12.4442 33.4124 13.9442 30.3749 13.9442C27.6755 13.9442 25.8252 12.7597 25.0958 11.4432C25.0852 11.4439 25.0745 11.4442 25.0637 11.4442L19.4465 11.4442C20.3113 11.9314 21.2112 12.6561 22.0699 13.6516C24.3125 16.2514 24.4676 17.7845 24.1307 19.5678C24.0002 19.5729 23.8671 19.5794 23.7317 19.5859C21.9858 19.6704 19.8506 19.7737 17.7695 17.361C15.8436 15.1282 15.296 12.8902 15.627 11.4442H7.30435C8.60544 11.9756 10.0278 12.9717 11.3656 14.5227C14.0231 17.6037 14.2069 19.4204 13.8077 21.5336C13.6531 21.5397 13.4955 21.5474 13.335 21.5551C11.2661 21.6553 8.73557 21.7777 6.26937 18.9186C3.76998 16.021 3.22957 13.1158 3.87012 11.4442H0.875237C0.599091 11.4442 0.375237 11.2204 0.375237 10.9442C0.375237 10.6681 0.599091 10.4442 0.875237 10.4442H3.80029C3.27494 8.74709 3.86793 5.9561 6.26937 3.17203C8.73557 0.312885 11.2658 0.43534 13.3348 0.53547C13.4953 0.543237 13.653 0.550871 13.8077 0.556967C14.2069 2.67021 14.0231 4.48696 11.3656 7.5679C10.1818 8.94033 8.93184 9.87831 7.75826 10.4442H15.6715C15.2539 9.00785 15.7655 6.67887 17.7695 4.3556C19.8506 1.94289 21.9858 2.0462 23.7317 2.13069C23.8671 2.13724 24.0002 2.14368 24.1307 2.14882C24.4676 3.93208 24.3125 5.46515 22.0699 8.06501C21.1037 9.18517 20.0853 9.96236 19.1235 10.4442L25.0637 10.4442C25.0745 10.4442 25.0852 10.4446 25.0958 10.4452ZM30.3749 12.9442C27.9142 12.9442 26.4717 11.8669 25.9638 10.9442C26.4717 10.0216 27.9142 8.94423 30.3749 8.94423C31.7169 8.94423 32.6504 9.2719 33.3461 9.72158C33.86 10.0537 34.2775 10.4737 34.6446 10.9442C34.2775 11.4147 33.86 11.8348 33.3461 12.1669C32.6504 12.6166 31.7169 12.9442 30.3749 12.9442ZM18.2837 9.72926C19.2119 9.34615 20.2795 8.6097 21.3127 7.41186C22.3839 6.16997 22.8875 5.26049 23.1091 4.51558C23.2511 4.03812 23.2888 3.59073 23.2543 3.11085C22.6003 3.08517 21.9772 3.08544 21.3236 3.22762C20.4546 3.41664 19.508 3.87114 18.5267 5.00875C17.4935 6.20659 16.9217 7.3707 16.679 8.34511C16.4998 9.06437 16.5075 9.64147 16.6034 10.0551C17.0266 10.0892 17.5985 10.0121 18.2837 9.72926ZM21.3127 14.3047C20.2795 13.1069 19.2119 12.3704 18.2837 11.9873C17.5985 11.7045 17.0266 11.6274 16.6034 11.6615C16.5075 12.0751 16.4998 12.6522 16.679 13.3715C16.9217 14.3459 17.4935 15.51 18.5267 16.7078C19.508 17.8455 20.4546 18.2999 21.3236 18.489C21.9772 18.6311 22.6003 18.6314 23.2543 18.6057C23.2888 18.1259 23.2511 17.6785 23.1091 17.201C22.8875 16.4561 22.3839 15.5466 21.3127 14.3047ZM6.94939 9.71112C8.07966 9.24463 9.36773 8.35312 10.6084 6.91474C11.8871 5.43232 12.5016 4.33165 12.7744 3.41444C12.9668 2.76784 13.0031 2.16706 12.9397 1.51877C12.1012 1.48213 11.2918 1.46966 10.4418 1.65454C9.37231 1.88717 8.21534 2.44704 7.02659 3.82519C5.7859 5.26356 5.09311 6.66853 4.79757 7.85503C4.56207 8.80048 4.58769 9.56143 4.74039 10.0967C5.29228 10.1692 6.04874 10.0828 6.94939 9.71112ZM10.6084 15.1759C9.36773 13.7375 8.07966 12.846 6.94939 12.3795C6.04874 12.0078 5.29228 11.9214 4.74039 11.9939C4.58769 12.5292 4.56207 13.2901 4.79757 14.2356C5.09311 15.4221 5.7859 16.8271 7.02659 18.2654C8.21534 19.6436 9.37231 20.2034 10.4418 20.4361C11.2918 20.621 12.1012 20.6085 12.9397 20.5718C13.0031 19.9236 12.9668 19.3228 12.7744 18.6762C12.5016 17.759 11.8871 16.6583 10.6084 15.1759Z"
			fill="currentColor" />


	</symbol>




</svg>