<svg width="22" height="36" viewBox="0 0 22 36" fill="none" xmlns="http://www.w3.org/2000/svg">
<path fill-rule="evenodd" clip-rule="evenodd" d="M9.94866 10.7791C8.63221 10.0496 7.44765 8.19934 7.44765 5.5C7.44765 2.46243 8.94765 1 10.4477 0C11.9477 1 13.4477 2.46243 13.4477 5.5C13.4477 8.19934 12.2631 10.0496 10.9466 10.7791C10.9473 10.7897 10.9477 10.8004 10.9477 10.8111V16.4284C11.4348 15.5636 12.1595 14.6636 13.155 13.8049C15.7549 11.5624 17.2879 11.4073 19.0712 11.7441C19.0763 11.8747 19.0828 12.0078 19.0893 12.1432C19.1738 13.8891 19.2771 16.0243 16.8644 18.1054C14.6316 20.0313 12.3936 20.5788 10.9477 20.2479V28.5705C11.479 27.2694 12.4751 25.8471 14.0261 24.5092C17.1071 21.8517 18.9238 21.668 21.0371 22.0672C21.0432 22.2218 21.0508 22.3794 21.0585 22.5398C21.1587 24.6088 21.2811 27.1393 18.422 29.6055C15.5244 32.1049 12.6192 32.6453 10.9477 32.0048V34.9996C10.9477 35.2758 10.7238 35.4996 10.4477 35.4996C10.1715 35.4996 9.94765 35.2758 9.94765 34.9996V32.0746C8.25051 32.5999 5.45952 32.0069 2.67545 29.6055C-0.183697 27.1393 -0.0612424 24.609 0.0388883 22.5401C0.046655 22.3796 0.0542891 22.2218 0.0603853 22.0672C2.17363 21.668 3.99038 21.8517 7.07131 24.5092C8.44375 25.6931 9.38172 26.943 9.94765 28.1166V20.2034C8.51127 20.621 6.18229 20.1094 3.85902 18.1054C1.44631 16.0243 1.54962 13.8891 1.6341 12.1432C1.64066 12.0078 1.6471 11.8747 1.65224 11.7441C3.4355 11.4073 4.96856 11.5624 7.56843 13.8049C8.68859 14.7711 9.46577 15.7896 9.94765 16.7514V10.8111C9.94765 10.8004 9.94799 10.7897 9.94866 10.7791ZM12.4477 5.5C12.4477 7.96065 11.3703 9.40319 10.4477 9.91107C9.52501 9.40319 8.44765 7.96065 8.44765 5.5C8.44765 4.15797 8.77532 3.22449 9.225 2.52873C9.55711 2.0149 9.97716 1.59743 10.4477 1.23031C10.9181 1.59743 11.3382 2.0149 11.6703 2.52873C12.12 3.22449 12.4477 4.15797 12.4477 5.5ZM9.23268 17.5912C8.84957 16.6629 8.11312 15.5954 6.91528 14.5622C5.67339 13.4909 4.76391 12.9873 4.01899 12.7658C3.54154 12.6237 3.09415 12.5861 2.61427 12.6205C2.58859 13.2746 2.58886 13.8976 2.73103 14.5513C2.92006 15.4203 3.37455 16.3669 4.51217 17.3482C5.71001 18.3814 6.87412 18.9532 7.84853 19.1959C8.56779 19.375 9.14489 19.3674 9.5585 19.2715C9.59264 18.8483 9.51547 18.2763 9.23268 17.5912ZM13.8081 14.5622C12.6103 15.5954 11.8739 16.6629 11.4907 17.5912C11.208 18.2763 11.1308 18.8483 11.1649 19.2715C11.5785 19.3674 12.1556 19.375 12.8749 19.1959C13.8493 18.9532 15.0134 18.3814 16.2113 17.3482C17.3489 16.3669 17.8034 15.4203 17.9924 14.5513C18.1346 13.8976 18.1348 13.2746 18.1092 12.6205C17.6293 12.5861 17.1819 12.6237 16.7044 12.7658C15.9595 12.9873 15.05 13.4909 13.8081 14.5622ZM9.21453 28.9255C8.74805 27.7952 7.85653 26.5072 6.41816 25.2665C4.93574 23.9878 3.83507 23.3733 2.91786 23.1004C2.27126 22.9081 1.67048 22.8718 1.02219 22.9352C0.985544 23.7736 0.973078 24.5831 1.15796 25.4331C1.39058 26.5026 1.95046 27.6595 3.3286 28.8483C4.76698 30.089 6.17195 30.7818 7.35844 31.0773C8.3039 31.3128 9.06484 31.2872 9.60012 31.1345C9.6726 30.5826 9.58626 29.8261 9.21453 28.9255ZM14.6793 25.2665C13.2409 26.5072 12.3494 27.7952 11.8829 28.9255C11.5112 29.8261 11.4248 30.5826 11.4973 31.1345C12.0326 31.2872 12.7935 31.3128 13.739 31.0773C14.9255 30.7818 16.3305 30.089 17.7688 28.8483C19.147 27.6595 19.7069 26.5026 19.9395 25.4331C20.1244 24.5831 20.1119 23.7736 20.0753 22.9352C19.427 22.8718 18.8262 22.9081 18.1796 23.1004C17.2624 23.3733 16.1617 23.9878 14.6793 25.2665Z" fill="black"/>
</svg>
