<svg width="22" height="36" viewBox="0 0 22 36" fill="none" xmlns="http://www.w3.org/2000/svg">
<path fill-rule="evenodd" clip-rule="evenodd" d="M11.1489 24.7205C12.4653 25.45 13.6499 27.3003 13.6499 29.9996C13.6499 33.0372 12.1499 34.4996 10.6499 35.4996C9.14988 34.4996 7.64988 33.0372 7.64988 29.9996C7.64988 27.3003 8.83444 25.45 10.1509 24.7205C10.1502 24.7099 10.1499 24.6992 10.1499 24.6885V19.0712C9.66269 19.936 8.93807 20.836 7.94254 21.6947C5.34267 23.9373 3.80961 24.0923 2.02635 23.7555C2.0212 23.625 2.01476 23.4919 2.00821 23.3564C1.92373 21.6105 1.82041 19.4754 4.23312 17.3943C6.46589 15.4683 8.70393 14.9208 10.1499 15.2517L10.1499 6.92911C9.61854 8.23019 8.62241 9.65255 7.0714 10.9904C3.99046 13.6479 2.17371 13.8317 0.0604706 13.4325C0.0543766 13.2779 0.0467472 13.1202 0.0389843 12.9598C-0.0611458 10.8908 -0.183613 8.36033 2.67554 5.89413C5.57316 3.39473 8.4783 2.85432 10.1499 3.49487V0.499992C10.1499 0.223846 10.3737 -7.62939e-06 10.6499 -7.62939e-06C10.926 -7.62939e-06 11.1499 0.223846 11.1499 0.499992V3.42505C12.847 2.89969 15.638 3.49269 18.4221 5.89413C21.2812 8.36033 21.1588 10.8906 21.0586 12.9596C21.0509 13.12 21.0432 13.2778 21.0371 13.4325C18.9239 13.8317 17.1072 13.6479 14.0262 10.9904C12.6538 9.80658 11.7158 8.5566 11.1499 7.38302L11.1499 15.2963C12.5863 14.8787 14.9152 15.3903 17.2385 17.3943C19.6512 19.4754 19.5479 21.6105 19.4634 23.3564C19.4569 23.4919 19.4504 23.625 19.4453 23.7555C17.662 24.0923 16.129 23.9373 13.5291 21.6947C12.4089 20.7285 11.6318 19.7101 11.1499 18.7482V24.6885C11.1499 24.6992 11.1495 24.7099 11.1489 24.7205ZM8.64988 29.9996C8.64988 27.539 9.72724 26.0964 10.6499 25.5886C11.5725 26.0964 12.6499 27.539 12.6499 29.9996C12.6499 31.3417 12.3222 32.2751 11.8725 32.9709C11.5404 33.4847 11.1204 33.9022 10.6499 34.2693C10.1794 33.9022 9.75934 33.4847 9.42723 32.9709C8.97755 32.2751 8.64988 31.3417 8.64988 29.9996ZM11.8649 17.9085C12.248 18.8367 12.9844 19.9043 14.1823 20.9375C15.4241 22.0087 16.3336 22.5123 17.0785 22.7339C17.556 22.8759 18.0034 22.9135 18.4833 22.8791C18.5089 22.2251 18.5087 21.602 18.3665 20.9484C18.1775 20.0793 17.723 19.1327 16.5854 18.1515C15.3875 17.1183 14.2234 16.5465 13.249 16.3038C12.5297 16.1246 11.9526 16.1322 11.539 16.2281C11.5049 16.6513 11.5821 17.2233 11.8649 17.9085ZM7.28939 20.9375C8.48723 19.9043 9.22368 18.8367 9.60679 17.9085C9.88958 17.2233 9.96675 16.6513 9.93261 16.2281C9.519 16.1322 8.94189 16.1246 8.22263 16.3038C7.24822 16.5465 6.08412 17.1183 4.88628 18.1515C3.74866 19.1327 3.29417 20.0793 3.10514 20.9484C2.96297 21.602 2.9627 22.2251 2.98838 22.8791C3.46826 22.9135 3.91564 22.8759 4.3931 22.7339C5.13802 22.5123 6.0475 22.0087 7.28939 20.9375ZM11.883 6.57415C12.3495 7.70441 13.241 8.99248 14.6794 10.2332C16.1618 11.5119 17.2625 12.1264 18.1797 12.3992C18.8263 12.5915 19.4271 12.6279 20.0753 12.5645C20.112 11.726 20.1245 10.9165 19.9396 10.0665C19.707 8.99707 19.1471 7.84009 17.7689 6.65135C16.3306 5.41066 14.9256 4.71786 13.7391 4.42232C12.7936 4.18682 12.0327 4.21245 11.4974 4.36515C11.4249 4.91704 11.5113 5.6735 11.883 6.57415ZM6.41824 10.2332C7.85662 8.99248 8.74813 7.70441 9.21462 6.57415C9.58634 5.6735 9.67269 4.91704 9.6002 4.36515C9.06493 4.21245 8.30399 4.18682 7.35853 4.42232C6.17204 4.71786 4.76707 5.41066 3.32869 6.65135C1.95054 7.84009 1.39067 8.99707 1.15804 10.0665C0.973162 10.9165 0.985628 11.726 1.02227 12.5645C1.67056 12.6279 2.27134 12.5915 2.91794 12.3992C3.83516 12.1264 4.93582 11.5119 6.41824 10.2332Z" fill="black"/>
</svg>
